<svg width="217" height="44" viewBox="0 0 217 44" fill="none" xmlns="http://www.w3.org/2000/svg">
<path d="M44 22C44 34.1503 34.1503 44 22 44C9.84974 44 0 34.1503 0 22C0 9.84974 9.84974 0 22 0C34.1503 0 44 9.84974 44 22ZM2.1869 22C2.1869 32.9425 11.0575 41.8131 22 41.8131C32.9425 41.8131 41.8131 32.9425 41.8131 22C41.8131 11.0575 32.9425 2.1869 22 2.1869C11.0575 2.1869 2.1869 11.0575 2.1869 22Z" fill="#1B4B3F"/>
<path fill-rule="evenodd" clip-rule="evenodd" d="M26.2075 27.6296C23.6329 29.8315 19.7139 29.5398 17.5764 30.1804C15.4655 30.8132 15.2515 33.8222 15.2515 33.8222L14.9385 33.8838C14.9385 33.8838 14.8979 31.0265 17.5333 28.3491C18.862 26.9994 19.9386 26.0283 21.2978 24.7097C23.1653 22.8985 25.1044 20.9363 25.7214 16.9865C25.6916 17.1549 24.8564 21.5174 17.6088 26.9273C16.3152 27.8931 15.4879 28.9844 15.1923 30.1032C14.5451 28.6182 14.1347 26.8842 14.0871 25.3435C14.0394 23.8031 14.2687 22.226 14.9778 20.8577C15.8203 19.2325 17.2758 18.0108 18.8032 17.0018C20.3304 15.9927 21.969 15.1482 23.4172 14.0284C24.8654 12.9086 26.144 11.4516 26.6056 9.68018C28.0084 12.588 29.2556 15.6489 29.456 18.8711C29.6563 22.0933 28.661 25.5311 26.2075 27.6296Z" fill="#1B4B3F"/>
<path d="M67.9847 29.08H64.138V26.6447L64.055 25.8421V20.4456C64.055 19.6338 63.8428 19.108 63.4184 18.8681C62.9941 18.6283 62.3668 18.5084 61.5366 18.5084C60.7063 18.5084 60.1067 18.6467 59.7377 18.9235C59.3687 19.2002 59.1842 19.6891 59.1842 20.3902V20.6946H55.2268V20.3902C55.2268 19.2832 55.4943 18.3146 56.0294 17.4844C56.5828 16.6542 57.3393 16.0177 58.2987 15.5749C59.2765 15.1136 60.4204 14.883 61.7303 14.883C63.0956 14.883 64.2395 15.1228 65.1619 15.6025C66.1029 16.0638 66.804 16.7372 67.2652 17.6228C67.7449 18.5084 67.9847 19.5784 67.9847 20.833V29.08ZM59.2396 29.3568C58.0035 29.3568 56.9611 29.0339 56.1124 28.3882C55.2821 27.7424 54.867 26.7923 54.867 25.5377C54.867 24.8181 55.0331 24.1909 55.3652 23.6558C55.7157 23.1208 56.2138 22.6872 56.8596 22.3551C57.5238 22.0046 58.3356 21.7555 59.2949 21.6079L64.3317 20.8607V23.5451L60.0698 24.2093C59.6455 24.2831 59.3318 24.3938 59.1289 24.5414C58.9259 24.689 58.8245 24.9104 58.8245 25.2056C58.8245 25.5746 58.9721 25.8329 59.2673 25.9805C59.5625 26.1281 60.0145 26.2019 60.6233 26.2019C61.1953 26.2019 61.7395 26.1373 62.2561 26.0081C62.7912 25.8606 63.2247 25.6023 63.5568 25.2333C63.8889 24.8458 64.055 24.2923 64.055 23.5728L64.4424 27.1982H63.9719C63.7321 27.5302 63.4 27.8623 62.9756 28.1944C62.5698 28.5265 62.0624 28.8033 61.4536 29.0247C60.8447 29.2461 60.1067 29.3568 59.2396 29.3568ZM77.3391 34.0614C75.9001 34.0614 74.6732 33.8493 73.6584 33.4249C72.6437 33.019 71.8688 32.4102 71.3338 31.5984C70.8172 30.7866 70.5589 29.7903 70.5589 28.6096H74.6824C74.6824 29.0708 74.747 29.4306 74.8761 29.6889C75.0237 29.9656 75.3005 30.1501 75.7063 30.2423C76.1122 30.353 76.7026 30.4084 77.4775 30.4084C78.2155 30.4084 78.769 30.3346 79.138 30.187C79.507 30.0394 79.756 29.7719 79.8852 29.3844C80.0328 29.0154 80.1066 28.4712 80.1066 27.7516V18.4807L80.3833 18.1209V15.1597H84.2301V27.5302C84.2301 29.0247 83.9626 30.2516 83.4275 31.211C82.9109 32.1888 82.1361 32.9083 81.1029 33.3696C80.0881 33.8308 78.8336 34.0614 77.3391 34.0614ZM75.7617 27.6133C73.8429 27.6133 72.3762 27.0413 71.3615 25.8975C70.3652 24.7536 69.867 23.213 69.867 21.2758C69.867 19.3386 70.3836 17.7888 71.4168 16.6265C72.45 15.4642 73.9536 14.883 75.9277 14.883C76.9425 14.883 77.8188 15.0767 78.5568 15.4642C79.3133 15.8332 79.876 16.4051 80.245 17.18H80.8538L80.6324 20.8607H80.1066C80.1066 20.2703 79.9867 19.7998 79.7468 19.4493C79.5254 19.0803 79.1841 18.8128 78.7229 18.6467C78.2801 18.4807 77.7266 18.3977 77.0624 18.3977C76.2691 18.3977 75.651 18.5084 75.2082 18.7298C74.7654 18.9327 74.4518 19.2463 74.2673 19.6707C74.0828 20.095 73.9905 20.6301 73.9905 21.2758C73.9905 21.7555 74.0367 22.1798 74.1289 22.5488C74.2396 22.9178 74.4056 23.2223 74.627 23.4621C74.8669 23.7019 75.1805 23.8772 75.568 23.9879C75.9739 24.0986 76.4628 24.154 77.0347 24.154C77.6989 24.154 78.2616 24.0709 78.7229 23.9049C79.1841 23.7388 79.5254 23.4805 79.7468 23.13C79.9867 22.761 80.1066 22.2813 80.1066 21.6909H80.7431V25.593H79.9405C79.6269 26.1281 79.1103 26.5985 78.3908 27.0044C77.6897 27.4103 76.8133 27.6133 75.7617 27.6133ZM90.8934 29.08H86.7699V15.1597H90.6166V19.1172L90.8934 19.2556V29.08ZM90.8934 20.3626H90.1185V17.4014H90.7827C91.1332 16.7003 91.6221 16.1099 92.2494 15.6302C92.8952 15.1321 93.7069 14.883 94.6848 14.883C95.6626 14.883 96.4375 15.1044 97.0094 15.5472C97.5998 15.9715 98.0242 16.5619 98.2825 17.3184C98.5408 18.0563 98.6699 18.8958 98.6699 19.8367V21.1098H94.5464V20.3626C94.5464 19.6061 94.4173 19.0895 94.159 18.8128C93.9007 18.536 93.4394 18.3977 92.7752 18.3977C92.1479 18.3977 91.6775 18.536 91.3638 18.8128C91.0502 19.0895 90.8934 19.6061 90.8934 20.3626ZM106.952 29.3568C105.457 29.3568 104.175 29.0616 103.105 28.4712C102.035 27.8808 101.214 27.0413 100.642 25.9528C100.088 24.8643 99.8117 23.5912 99.8117 22.1337C99.8117 20.6577 100.088 19.3755 100.642 18.287C101.214 17.1984 102.035 16.359 103.105 15.7686C104.175 15.1782 105.457 14.883 106.952 14.883C108.446 14.883 109.71 15.1782 110.743 15.7686C111.795 16.359 112.597 17.1984 113.151 18.287C113.723 19.3755 114.009 20.6577 114.009 22.1337C114.009 23.5912 113.723 24.8643 113.151 25.9528C112.597 27.0413 111.795 27.8808 110.743 28.4712C109.71 29.0616 108.446 29.3568 106.952 29.3568ZM106.952 25.7037C108.077 25.7037 108.861 25.4454 109.304 24.9288C109.747 24.4123 109.968 23.4805 109.968 22.1337C109.968 20.7684 109.747 19.8275 109.304 19.3109C108.861 18.7943 108.077 18.536 106.952 18.536C105.826 18.536 105.033 18.7943 104.572 19.3109C104.129 19.8275 103.908 20.7684 103.908 22.1337C103.908 23.4805 104.129 24.4123 104.572 24.9288C105.033 25.4454 105.826 25.7037 106.952 25.7037ZM122.182 29.3568C120.005 29.3568 118.372 28.9416 117.284 28.1114C116.214 27.2812 115.678 26.0266 115.678 24.3477V24.2647H119.636V24.8458C119.636 25.1779 119.719 25.4362 119.885 25.6207C120.051 25.8052 120.319 25.9344 120.688 26.0081C121.075 26.0635 121.601 26.0912 122.265 26.0912C122.837 26.0912 123.261 26.0635 123.538 26.0081C123.815 25.9344 123.999 25.8329 124.092 25.7037C124.184 25.5561 124.23 25.3716 124.23 25.1502C124.23 24.7628 124.082 24.5045 123.787 24.3754C123.51 24.2278 122.911 24.0709 121.988 23.9049L119.885 23.5174C118.981 23.3514 118.215 23.1023 117.588 22.7702C116.961 22.4381 116.481 21.9953 116.149 21.4419C115.817 20.8699 115.651 20.1504 115.651 19.2832C115.651 17.9918 116.158 16.9401 117.173 16.1284C118.206 15.2981 119.719 14.883 121.712 14.883C122.855 14.883 123.879 15.0583 124.783 15.4088C125.687 15.7594 126.398 16.2852 126.914 16.9863C127.449 17.6874 127.717 18.5637 127.717 19.6153V20.0028H123.759V19.6153C123.759 19.3017 123.704 19.0434 123.593 18.8405C123.483 18.6191 123.271 18.4622 122.957 18.37C122.643 18.2593 122.191 18.2039 121.601 18.2039C120.771 18.2039 120.217 18.2962 119.94 18.4807C119.682 18.6467 119.553 18.8958 119.553 19.2279C119.553 19.56 119.664 19.7998 119.885 19.9474C120.106 20.095 120.632 20.2519 121.462 20.4179L124.008 20.9437C124.986 21.1282 125.78 21.405 126.388 21.774C126.997 22.1245 127.44 22.5765 127.717 23.13C128.012 23.6835 128.16 24.3385 128.16 25.0949C128.16 26.4048 127.643 27.4472 126.61 28.2221C125.595 28.9785 124.119 29.3568 122.182 29.3568ZM136.514 29.3568C134.927 29.3568 133.618 29.0616 132.584 28.4712C131.551 27.8808 130.785 27.0506 130.287 25.9805C129.789 24.8919 129.54 23.6189 129.54 22.1614C129.54 20.667 129.817 19.3755 130.37 18.287C130.942 17.1984 131.754 16.359 132.806 15.7686C133.857 15.1782 135.103 14.883 136.542 14.883C137.944 14.883 139.134 15.1413 140.112 15.6579C141.108 16.1745 141.865 16.894 142.381 17.8165C142.916 18.7205 143.184 19.7814 143.184 20.9991C143.184 21.3865 143.156 21.7647 143.101 22.1337C143.064 22.5027 143.027 22.8071 142.99 23.047H131.367V20.5286H139.448L139.171 20.75C139.245 20.215 139.18 19.7722 138.977 19.4216C138.793 19.0526 138.479 18.7759 138.036 18.5914C137.612 18.3884 137.068 18.287 136.403 18.287C135.26 18.287 134.475 18.5453 134.051 19.0619C133.627 19.5784 133.415 20.3164 133.415 21.2758V22.4935C133.415 23.2684 133.498 23.8957 133.664 24.3754C133.848 24.855 134.171 25.2056 134.632 25.427C135.093 25.6484 135.739 25.7591 136.569 25.7591C137.4 25.7591 137.999 25.6668 138.368 25.4823C138.756 25.2794 138.949 24.9657 138.949 24.5414V24.3754H143.045V24.6521C143.045 25.6484 142.778 26.4971 142.243 27.1982C141.708 27.8992 140.951 28.4343 139.973 28.8033C138.996 29.1723 137.842 29.3568 136.514 29.3568ZM159.038 29.08H154.887V21.0821C154.887 20.1227 154.693 19.4493 154.305 19.0619C153.918 18.656 153.198 18.453 152.147 18.453C151.483 18.453 150.938 18.536 150.514 18.7021C150.108 18.8681 149.804 19.1541 149.601 19.56C149.398 19.9474 149.296 20.4917 149.296 21.1928H148.715L148.383 17.5951H149.186C149.444 17.0601 149.776 16.5896 150.182 16.1837C150.606 15.7778 151.123 15.4642 151.732 15.2428C152.34 15.0029 153.051 14.883 153.863 14.883C155.08 14.883 156.067 15.1228 156.824 15.6025C157.58 16.0822 158.134 16.7372 158.484 17.5674C158.853 18.3792 159.038 19.274 159.038 20.2519V29.08ZM149.296 29.08H145.173V15.1597H149.02V19.0895L149.296 19.2279V29.08ZM167.531 29.3568C165.354 29.3568 163.722 28.9416 162.633 28.1114C161.563 27.2812 161.028 26.0266 161.028 24.3477V24.2647H164.985V24.8458C164.985 25.1779 165.068 25.4362 165.234 25.6207C165.4 25.8052 165.668 25.9344 166.037 26.0081C166.424 26.0635 166.95 26.0912 167.614 26.0912C168.186 26.0912 168.611 26.0635 168.887 26.0081C169.164 25.9344 169.349 25.8329 169.441 25.7037C169.533 25.5561 169.579 25.3716 169.579 25.1502C169.579 24.7628 169.432 24.5045 169.136 24.3754C168.86 24.2278 168.26 24.0709 167.338 23.9049L165.234 23.5174C164.33 23.3514 163.565 23.1023 162.937 22.7702C162.31 22.4381 161.83 21.9953 161.498 21.4419C161.166 20.8699 161 20.1504 161 19.2832C161 17.9918 161.508 16.9401 162.522 16.1284C163.555 15.2981 165.068 14.883 167.061 14.883C168.205 14.883 169.229 15.0583 170.133 15.4088C171.037 15.7594 171.747 16.2852 172.264 16.9863C172.799 17.6874 173.066 18.5637 173.066 19.6153V20.0028H169.109V19.6153C169.109 19.3017 169.053 19.0434 168.943 18.8405C168.832 18.6191 168.62 18.4622 168.306 18.37C167.993 18.2593 167.541 18.2039 166.95 18.2039C166.12 18.2039 165.566 18.2962 165.29 18.4807C165.031 18.6467 164.902 18.8958 164.902 19.2279C164.902 19.56 165.013 19.7998 165.234 19.9474C165.456 20.095 165.982 20.2519 166.812 20.4179L169.358 20.9437C170.336 21.1282 171.129 21.405 171.738 21.774C172.347 22.1245 172.79 22.5765 173.066 23.13C173.361 23.6835 173.509 24.3385 173.509 25.0949C173.509 26.4048 172.992 27.4472 171.959 28.2221C170.945 28.9785 169.469 29.3568 167.531 29.3568ZM181.864 29.3568C180.277 29.3568 178.967 29.0616 177.934 28.4712C176.901 27.8808 176.135 27.0506 175.637 25.9805C175.139 24.8919 174.89 23.6189 174.89 22.1614C174.89 20.667 175.166 19.3755 175.72 18.287C176.292 17.1984 177.104 16.359 178.155 15.7686C179.207 15.1782 180.452 14.883 181.891 14.883C183.293 14.883 184.483 15.1413 185.461 15.6579C186.457 16.1745 187.214 16.894 187.731 17.8165C188.266 18.7205 188.533 19.7814 188.533 20.9991C188.533 21.3865 188.505 21.7647 188.45 22.1337C188.413 22.5027 188.376 22.8071 188.339 23.047H176.716V20.5286H184.797L184.52 20.75C184.594 20.215 184.529 19.7722 184.327 19.4216C184.142 19.0526 183.828 18.7759 183.386 18.5914C182.961 18.3884 182.417 18.287 181.753 18.287C180.609 18.287 179.825 18.5453 179.4 19.0619C178.976 19.5784 178.764 20.3164 178.764 21.2758V22.4935C178.764 23.2684 178.847 23.8957 179.013 24.3754C179.198 24.855 179.52 25.2056 179.982 25.427C180.443 25.6484 181.089 25.7591 181.919 25.7591C182.749 25.7591 183.349 25.6668 183.718 25.4823C184.105 25.2794 184.299 24.9657 184.299 24.5414V24.3754H188.395V24.6521C188.395 25.6484 188.127 26.4971 187.592 27.1982C187.057 27.8992 186.301 28.4343 185.323 28.8033C184.345 29.1723 183.192 29.3568 181.864 29.3568ZM208.546 29.08H204.7V26.6447L204.616 25.8421V20.4456C204.616 19.6338 204.404 19.108 203.98 18.8681C203.556 18.6283 202.928 18.5084 202.098 18.5084C201.268 18.5084 200.668 18.6467 200.299 18.9235C199.93 19.2002 199.746 19.6891 199.746 20.3902V20.6946H195.788V20.3902C195.788 19.2832 196.056 18.3146 196.591 17.4844C197.144 16.6542 197.901 16.0177 198.86 15.5749C199.838 15.1136 200.982 14.883 202.292 14.883C203.657 14.883 204.801 15.1228 205.723 15.6025C206.664 16.0638 207.365 16.7372 207.827 17.6228C208.306 18.5084 208.546 19.5784 208.546 20.833V29.08ZM199.801 29.3568C198.565 29.3568 197.523 29.0339 196.674 28.3882C195.844 27.7424 195.429 26.7923 195.429 25.5377C195.429 24.8181 195.595 24.1909 195.927 23.6558C196.277 23.1208 196.775 22.6872 197.421 22.3551C198.085 22.0046 198.897 21.7555 199.856 21.6079L204.893 20.8607V23.5451L200.631 24.2093C200.207 24.2831 199.893 24.3938 199.69 24.5414C199.487 24.689 199.386 24.9104 199.386 25.2056C199.386 25.5746 199.534 25.8329 199.829 25.9805C200.124 26.1281 200.576 26.2019 201.185 26.2019C201.757 26.2019 202.301 26.1373 202.818 26.0081C203.353 25.8606 203.786 25.6023 204.118 25.2333C204.45 24.8458 204.616 24.2923 204.616 23.5728L205.004 27.1982H204.533C204.294 27.5302 203.962 27.8623 203.537 28.1944C203.131 28.5265 202.624 28.8033 202.015 29.0247C201.406 29.2461 200.668 29.3568 199.801 29.3568ZM214.91 13.5823H210.842L210.786 10.5381H214.91V13.5823ZM214.993 29.08H210.842V15.1597H214.993V29.08Z" fill="#1B4B3F"/>
</svg>
