<svg width="299" height="46" viewBox="0 0 299 46" fill="none" xmlns="http://www.w3.org/2000/svg">
<path d="M91.7448 24L97.9251 6.85934H102.271L108.451 24H104.636L103.381 20.3546H96.7904L95.535 24H91.7448ZM97.8285 17.3369H102.367L100.098 10.722L97.8285 17.3369ZM113.258 24C112.195 24 111.366 23.7344 110.771 23.2033C110.175 22.6722 109.878 21.8111 109.878 20.6202V6.85934H113.499V20.2339C113.499 20.6202 113.587 20.8938 113.765 21.0547C113.942 21.2156 114.199 21.2961 114.537 21.2961H115.406V24H113.258ZM124.693 24.2897C123.791 24.2897 123.003 24.0966 122.327 23.7103C121.667 23.324 121.152 22.7849 120.782 22.0928L120.709 24H117.257V6.85934H120.878V12.8948C121.216 12.2993 121.715 11.8004 122.375 11.398C123.035 10.9795 123.807 10.7703 124.693 10.7703C125.787 10.7703 126.737 11.052 127.541 11.6153C128.346 12.1625 128.966 12.9431 129.4 13.957C129.851 14.971 130.076 16.162 130.076 17.53C130.076 18.898 129.851 20.089 129.4 21.103C128.966 22.1169 128.346 22.9056 127.541 23.4689C126.737 24.0161 125.787 24.2897 124.693 24.2897ZM123.679 21.5134C124.483 21.5134 125.127 21.1674 125.61 20.4753C126.109 19.7671 126.358 18.7854 126.358 17.53C126.358 16.2746 126.117 15.3009 125.634 14.6089C125.151 13.9007 124.508 13.5466 123.703 13.5466C123.107 13.5466 122.592 13.7076 122.158 14.0294C121.739 14.3352 121.417 14.7859 121.192 15.3814C120.983 15.9769 120.878 16.6931 120.878 17.53C120.878 18.3508 120.983 19.059 121.192 19.6545C121.417 20.25 121.739 20.7087 122.158 21.0306C122.592 21.3525 123.099 21.5134 123.679 21.5134ZM132.322 24V11.06H135.943V24H132.322ZM132.25 9.46665V6.56964H135.992V9.46665H132.25ZM139.277 24V11.06H142.536L142.681 14.8503L142.222 14.7296C142.351 13.7639 142.608 12.9914 142.995 12.4119C143.397 11.8325 143.896 11.4141 144.492 11.1566C145.087 10.8991 145.739 10.7703 146.447 10.7703C147.38 10.7703 148.169 10.9715 148.813 11.3739C149.473 11.7762 149.972 12.3476 150.31 13.0879C150.664 13.8122 150.841 14.6732 150.841 15.6711V24H147.22V16.8782C147.22 16.1861 147.163 15.5987 147.051 15.1158C146.938 14.633 146.737 14.2709 146.447 14.0294C146.157 13.7719 145.755 13.6432 145.24 13.6432C144.483 13.6432 143.904 13.9248 143.502 14.4881C143.099 15.0354 142.898 15.832 142.898 16.8782V24H139.277ZM153.823 24V11.06H157.445V24H153.823ZM153.751 9.46665V6.56964H157.493V9.46665H153.751ZM165.906 24.2897C164.57 24.2897 163.451 24.1046 162.55 23.7344C161.649 23.3482 160.957 22.8331 160.474 22.1894C160.007 21.5295 159.742 20.773 159.677 19.92L163.347 19.7993C163.459 20.4109 163.717 20.8857 164.119 21.2237C164.522 21.5617 165.117 21.7307 165.906 21.7307C166.55 21.7307 167.049 21.6261 167.403 21.4168C167.773 21.2076 167.958 20.8857 167.958 20.4512C167.958 20.1776 167.894 19.9522 167.765 19.7752C167.636 19.5821 167.378 19.4211 166.992 19.2924C166.622 19.1475 166.067 19.0187 165.326 18.9061C163.958 18.6647 162.888 18.383 162.116 18.0611C161.343 17.7392 160.796 17.3208 160.474 16.8058C160.152 16.2907 159.991 15.663 159.991 14.9227C159.991 13.6834 160.466 12.6856 161.415 11.9291C162.381 11.1566 163.822 10.7703 165.737 10.7703C166.96 10.7703 167.982 10.9634 168.803 11.3497C169.64 11.736 170.284 12.2671 170.734 12.9431C171.201 13.6029 171.491 14.3594 171.603 15.2124L167.958 15.3572C167.91 14.9388 167.781 14.5847 167.572 14.295C167.378 13.9892 167.129 13.7558 166.823 13.5949C166.517 13.4179 166.147 13.3293 165.713 13.3293C165.069 13.3293 164.57 13.4661 164.216 13.7397C163.878 13.9973 163.709 14.3433 163.709 14.7778C163.709 15.0997 163.781 15.3653 163.926 15.5745C164.087 15.7677 164.345 15.9286 164.699 16.0574C165.053 16.1861 165.528 16.2907 166.123 16.3712C167.507 16.5643 168.602 16.8379 169.406 17.192C170.227 17.53 170.815 17.9565 171.169 18.4715C171.523 18.9866 171.7 19.6223 171.7 20.3787C171.7 21.2156 171.458 21.9238 170.976 22.5032C170.493 23.0826 169.817 23.5252 168.948 23.831C168.095 24.1368 167.081 24.2897 165.906 24.2897ZM173.934 24V11.06H177.193L177.313 14.1743L176.975 14.0294C177.152 13.3374 177.418 12.7499 177.772 12.2671C178.142 11.7843 178.585 11.4141 179.1 11.1566C179.615 10.8991 180.178 10.7703 180.79 10.7703C181.868 10.7703 182.737 11.0842 183.397 11.7118C184.073 12.3395 184.508 13.1845 184.701 14.2467L184.242 14.2709C184.387 13.5144 184.636 12.8787 184.99 12.3637C185.361 11.8325 185.811 11.4382 186.342 11.1807C186.874 10.9071 187.469 10.7703 188.129 10.7703C189.03 10.7703 189.803 10.9554 190.447 11.3256C191.09 11.6957 191.589 12.251 191.943 12.9914C192.297 13.7156 192.474 14.6089 192.474 15.6711V24H188.853V16.685C188.853 15.6711 188.7 14.9146 188.394 14.4157C188.089 13.9007 187.59 13.6432 186.898 13.6432C186.463 13.6432 186.093 13.7639 185.787 14.0053C185.481 14.2467 185.24 14.6008 185.063 15.0675C184.902 15.5182 184.821 16.0735 184.821 16.7333V24H181.562V16.7333C181.562 15.7355 181.417 14.971 181.128 14.4399C180.838 13.9087 180.339 13.6432 179.631 13.6432C179.196 13.6432 178.818 13.7639 178.496 14.0053C178.191 14.2467 177.957 14.6008 177.796 15.0675C177.635 15.5343 177.555 16.0895 177.555 16.7333V24H173.934ZM201.357 24V6.85934H205.026V14.3433L211.255 6.85934H215.528L209.227 14.4157L215.914 24H211.738L206.813 16.8782L205.026 18.9544V24H201.357ZM222.378 24.2897C221.058 24.2897 219.908 24.0161 218.926 23.4689C217.944 22.9056 217.18 22.1169 216.632 21.103C216.085 20.089 215.812 18.898 215.812 17.53C215.812 16.162 216.085 14.979 216.632 13.9812C217.18 12.9672 217.944 12.1786 218.926 11.6153C219.908 11.052 221.058 10.7703 222.378 10.7703C223.698 10.7703 224.849 11.052 225.83 11.6153C226.812 12.1786 227.577 12.9672 228.124 13.9812C228.671 14.979 228.945 16.162 228.945 17.53C228.945 18.898 228.671 20.089 228.124 21.103C227.577 22.1169 226.812 22.9056 225.83 23.4689C224.849 24.0161 223.698 24.2897 222.378 24.2897ZM222.378 21.5134C223.279 21.5134 223.98 21.1674 224.478 20.4753C224.977 19.7671 225.227 18.7854 225.227 17.53C225.227 16.2746 224.977 15.3009 224.478 14.6089C223.98 13.9007 223.279 13.5466 222.378 13.5466C221.477 13.5466 220.777 13.9007 220.278 14.6089C219.779 15.3009 219.529 16.2746 219.529 17.53C219.529 18.7854 219.779 19.7671 220.278 20.4753C220.777 21.1674 221.477 21.5134 222.378 21.5134ZM231.2 24V11.06H234.459L234.604 14.8503L234.145 14.7296C234.274 13.7639 234.531 12.9914 234.917 12.4119C235.32 11.8325 235.819 11.4141 236.414 11.1566C237.01 10.8991 237.661 10.7703 238.37 10.7703C239.303 10.7703 240.092 10.9715 240.736 11.3739C241.395 11.7762 241.894 12.3476 242.232 13.0879C242.586 13.8122 242.763 14.6732 242.763 15.6711V24H239.142V16.8782C239.142 16.1861 239.086 15.5987 238.973 15.1158C238.861 14.633 238.659 14.2709 238.37 14.0294C238.08 13.7719 237.678 13.6432 237.163 13.6432C236.406 13.6432 235.827 13.9248 235.424 14.4881C235.022 15.0354 234.821 15.832 234.821 16.8782V24H231.2ZM245.581 24V11.06H248.84L248.985 14.8503L248.526 14.7296C248.655 13.7639 248.912 12.9914 249.299 12.4119C249.701 11.8325 250.2 11.4141 250.795 11.1566C251.391 10.8991 252.043 10.7703 252.751 10.7703C253.684 10.7703 254.473 10.9715 255.117 11.3739C255.777 11.7762 256.276 12.3476 256.614 13.0879C256.968 13.8122 257.145 14.6732 257.145 15.6711V24H253.523V16.8782C253.523 16.1861 253.467 15.5987 253.354 15.1158C253.242 14.633 253.041 14.2709 252.751 14.0294C252.461 13.7719 252.059 13.6432 251.544 13.6432C250.787 13.6432 250.208 13.9248 249.806 14.4881C249.403 15.0354 249.202 15.832 249.202 16.8782V24H245.581ZM265.851 24.2897C264.531 24.2897 263.381 24.0161 262.399 23.4689C261.433 22.9056 260.677 22.1169 260.129 21.103C259.598 20.089 259.333 18.898 259.333 17.53C259.333 16.162 259.598 14.979 260.129 13.9812C260.677 12.9672 261.433 12.1786 262.399 11.6153C263.364 11.052 264.507 10.7703 265.827 10.7703C267.114 10.7703 268.233 11.052 269.183 11.6153C270.132 12.1786 270.865 12.9833 271.38 14.0294C271.911 15.0756 272.176 16.3229 272.176 17.7714V18.4957H263.075C263.123 19.5257 263.397 20.2902 263.896 20.7891C264.411 21.2881 265.087 21.5375 265.923 21.5375C266.535 21.5375 267.042 21.4088 267.444 21.1513C267.863 20.8938 268.161 20.4994 268.338 19.9683L271.983 20.1856C271.645 21.4732 270.929 22.4791 269.834 23.2033C268.74 23.9276 267.412 24.2897 265.851 24.2897ZM263.075 16.2746H268.458C268.41 15.3251 268.145 14.6169 267.662 14.1502C267.195 13.6834 266.583 13.45 265.827 13.45C265.07 13.45 264.443 13.6995 263.944 14.1984C263.461 14.6813 263.171 15.3733 263.075 16.2746ZM280.281 24.2897C278.961 24.2897 277.81 24.0161 276.828 23.4689C275.847 22.9056 275.082 22.1169 274.535 21.103C273.988 20.089 273.714 18.898 273.714 17.53C273.714 16.162 273.988 14.979 274.535 13.9812C275.082 12.9672 275.847 12.1786 276.828 11.6153C277.81 11.052 278.961 10.7703 280.281 10.7703C281.423 10.7703 282.445 10.9715 283.347 11.3739C284.264 11.7762 285.004 12.3556 285.568 13.1121C286.131 13.8685 286.477 14.7778 286.606 15.8401L282.864 16.0091C282.751 15.2043 282.461 14.6008 281.995 14.1984C281.544 13.78 280.973 13.5708 280.281 13.5708C279.379 13.5708 278.679 13.9168 278.18 14.6089C277.681 15.3009 277.432 16.2746 277.432 17.53C277.432 18.7854 277.681 19.7671 278.18 20.4753C278.679 21.1674 279.379 21.5134 280.281 21.5134C280.973 21.5134 281.552 21.3042 282.019 20.8857C282.486 20.4512 282.767 19.7993 282.864 18.9302L286.606 19.0751C286.493 20.1373 286.155 21.0628 285.592 21.8514C285.045 22.6239 284.312 23.2275 283.395 23.662C282.494 24.0805 281.456 24.2897 280.281 24.2897ZM293.566 24C292.23 24 291.248 23.6942 290.62 23.0826C289.993 22.4549 289.679 21.4651 289.679 20.1132V8.01815H293.3V19.6786C293.3 20.3063 293.429 20.7328 293.686 20.9581C293.96 21.1835 294.362 21.2961 294.893 21.2961H296.704V24H293.566ZM287.603 13.7639V11.06H296.704V13.7639H287.603Z" fill="#212429"/>
<path d="M92.119 37.6683V31.2406H96.1567V32.0011H92.8975V34.0742H96.048V34.8166H92.8975V36.9079H96.2291V37.6683H92.119ZM97.4652 37.6683V32.8702H98.1623L98.1895 34.0833L98.0808 34.0471C98.1351 33.7815 98.2287 33.5552 98.3615 33.3681C98.5003 33.1749 98.6693 33.0271 98.8685 32.9245C99.0676 32.8158 99.2879 32.7615 99.5293 32.7615C99.9458 32.7615 100.284 32.8762 100.543 33.1055C100.809 33.3349 100.975 33.6548 101.041 34.0652L100.896 34.0561C100.945 33.7785 101.032 33.5461 101.159 33.359C101.292 33.1659 101.461 33.018 101.666 32.9154C101.871 32.8128 102.106 32.7615 102.372 32.7615C102.716 32.7615 103.006 32.8339 103.241 32.9788C103.477 33.1176 103.655 33.3228 103.775 33.5944C103.896 33.866 103.956 34.1949 103.956 34.5812V37.6683H103.196V34.7442C103.196 34.3096 103.111 33.9837 102.942 33.7664C102.773 33.5431 102.523 33.4315 102.191 33.4315C101.968 33.4315 101.771 33.4858 101.603 33.5944C101.44 33.703 101.313 33.86 101.222 34.0652C101.132 34.2643 101.086 34.5088 101.086 34.7985V37.6683H100.326V34.7985C100.326 34.37 100.251 34.035 100.1 33.7936C99.9488 33.5522 99.6953 33.4315 99.3392 33.4315C99.1159 33.4315 98.9198 33.4858 98.7508 33.5944C98.5878 33.703 98.458 33.86 98.3615 34.0652C98.2709 34.2704 98.2257 34.5148 98.2257 34.7985V37.6683H97.4652ZM105.228 39.0263V32.8702H105.934L105.952 33.9022L105.843 33.8479C105.964 33.4918 106.163 33.2232 106.441 33.0422C106.724 32.8551 107.05 32.7615 107.418 32.7615C107.895 32.7615 108.285 32.8792 108.586 33.1146C108.894 33.35 109.12 33.6578 109.265 34.038C109.416 34.4182 109.492 34.8287 109.492 35.2692C109.492 35.7098 109.416 36.1202 109.265 36.5005C109.12 36.8807 108.894 37.1885 108.586 37.4239C108.285 37.6593 107.895 37.777 107.418 37.777C107.171 37.777 106.939 37.7347 106.721 37.6502C106.51 37.5657 106.329 37.448 106.178 37.2972C106.033 37.1463 105.934 36.9682 105.879 36.763L105.988 36.6363V39.0263H105.228ZM107.346 37.0527C107.762 37.0527 108.091 36.8958 108.333 36.582C108.574 36.2681 108.695 35.8305 108.695 35.2692C108.695 34.708 108.574 34.2704 108.333 33.9565C108.091 33.6427 107.762 33.4858 107.346 33.4858C107.068 33.4858 106.827 33.5522 106.622 33.6849C106.423 33.8177 106.266 34.0169 106.151 34.2825C106.042 34.548 105.988 34.8769 105.988 35.2692C105.988 35.6616 106.042 35.9905 106.151 36.256C106.26 36.5216 106.417 36.7208 106.622 36.8536C106.827 36.9863 107.068 37.0527 107.346 37.0527ZM112.397 37.777C111.957 37.777 111.57 37.6744 111.239 37.4692C110.907 37.264 110.65 36.9743 110.469 36.6001C110.288 36.2198 110.197 35.7762 110.197 35.2692C110.197 34.7562 110.288 34.3126 110.469 33.9384C110.65 33.5642 110.907 33.2745 111.239 33.0693C111.57 32.8641 111.957 32.7615 112.397 32.7615C112.838 32.7615 113.221 32.8641 113.547 33.0693C113.879 33.2745 114.136 33.5642 114.317 33.9384C114.498 34.3126 114.588 34.7562 114.588 35.2692C114.588 35.7762 114.498 36.2198 114.317 36.6001C114.136 36.9743 113.879 37.264 113.547 37.4692C113.221 37.6744 112.838 37.777 112.397 37.777ZM112.397 37.0527C112.838 37.0527 113.179 36.8958 113.42 36.582C113.668 36.2621 113.792 35.8245 113.792 35.2692C113.792 34.714 113.668 34.2794 113.42 33.9656C113.179 33.6457 112.838 33.4858 112.397 33.4858C111.957 33.4858 111.613 33.6457 111.365 33.9656C111.118 34.2794 110.994 34.714 110.994 35.2692C110.994 35.8245 111.118 36.2621 111.365 36.582C111.613 36.8958 111.957 37.0527 112.397 37.0527ZM116.443 37.6683L114.958 32.8702H115.791L116.914 36.8717L118.054 32.8702H118.869L120.01 36.8717L121.141 32.8702H121.974L120.49 37.6683H119.53L118.462 34.0199L117.393 37.6683H116.443ZM124.536 37.777C124.083 37.777 123.691 37.6744 123.359 37.4692C123.033 37.264 122.78 36.9743 122.599 36.6001C122.424 36.2198 122.336 35.7762 122.336 35.2692C122.336 34.7623 122.424 34.3217 122.599 33.9475C122.78 33.5733 123.03 33.2836 123.35 33.0784C123.676 32.8671 124.059 32.7615 124.5 32.7615C124.916 32.7615 125.284 32.8611 125.604 33.0603C125.924 33.2534 126.172 33.5371 126.347 33.9113C126.528 34.2855 126.618 34.7411 126.618 35.2783V35.5046H123.133C123.163 36.0176 123.299 36.4039 123.54 36.6634C123.788 36.923 124.12 37.0527 124.536 37.0527C124.85 37.0527 125.106 36.9803 125.306 36.8354C125.511 36.6846 125.653 36.4884 125.731 36.247L126.546 36.3104C126.419 36.7389 126.178 37.092 125.822 37.3696C125.472 37.6412 125.043 37.777 124.536 37.777ZM123.133 34.8347H125.785C125.749 34.37 125.613 34.029 125.378 33.8117C125.149 33.5944 124.856 33.4858 124.5 33.4858C124.132 33.4858 123.827 33.6004 123.585 33.8298C123.35 34.0531 123.199 34.3881 123.133 34.8347ZM127.648 37.6683V32.8702H128.318L128.354 34.0833L128.282 34.0561C128.342 33.6457 128.472 33.347 128.671 33.1599C128.877 32.9667 129.148 32.8702 129.486 32.8702H129.957V33.5944H129.495C129.254 33.5944 129.052 33.6397 128.889 33.7302C128.732 33.8147 128.611 33.9445 128.526 34.1195C128.448 34.2885 128.409 34.5058 128.409 34.7713V37.6683H127.648ZM130.805 37.6683V32.8702H131.565V37.6683H130.805ZM130.786 32.1187V31.2315H131.583V32.1187H130.786ZM133.103 37.6683V32.8702H133.8L133.827 34.0923L133.737 34.0109C133.797 33.7272 133.903 33.4948 134.054 33.3138C134.205 33.1267 134.386 32.9878 134.597 32.8973C134.814 32.8068 135.047 32.7615 135.294 32.7615C135.662 32.7615 135.964 32.843 136.199 33.006C136.441 33.1689 136.619 33.3892 136.734 33.6668C136.854 33.9384 136.915 34.2432 136.915 34.5812V37.6683H136.154V34.7985C136.154 34.5027 136.118 34.2553 136.045 34.0561C135.979 33.8509 135.87 33.697 135.72 33.5944C135.569 33.4858 135.373 33.4315 135.131 33.4315C134.763 33.4315 134.458 33.5491 134.217 33.7845C133.981 34.0139 133.864 34.3519 133.864 34.7985V37.6683H133.103ZM140.077 39.1349C139.733 39.1349 139.422 39.0776 139.145 38.9629C138.867 38.8483 138.635 38.6853 138.448 38.4741C138.261 38.2628 138.134 38.0184 138.067 37.7408L138.864 37.6864C138.936 37.9098 139.063 38.0848 139.244 38.2115C139.431 38.3443 139.709 38.4107 140.077 38.4107C140.512 38.4107 140.844 38.3232 141.073 38.1482C141.308 37.9731 141.426 37.7106 141.426 37.3605V36.582C141.311 36.8354 141.127 37.0376 140.874 37.1885C140.62 37.3394 140.337 37.4148 140.023 37.4148C139.618 37.4148 139.256 37.3153 138.936 37.1161C138.623 36.9169 138.375 36.6423 138.194 36.2923C138.019 35.9422 137.932 35.5408 137.932 35.0882C137.932 34.6295 138.019 34.2281 138.194 33.8841C138.369 33.5341 138.611 33.2594 138.918 33.0603C139.232 32.8611 139.588 32.7615 139.987 32.7615C140.325 32.7615 140.626 32.84 140.892 32.9969C141.164 33.1538 141.354 33.3651 141.462 33.6306V32.8702H142.187V37.3424C142.187 37.7166 142.102 38.0365 141.933 38.3021C141.764 38.5737 141.523 38.7789 141.209 38.9177C140.895 39.0625 140.518 39.1349 140.077 39.1349ZM140.059 36.6906C140.469 36.6906 140.798 36.5488 141.046 36.2651C141.293 35.9754 141.42 35.5831 141.426 35.0882C141.432 34.7562 141.378 34.4726 141.263 34.2372C141.155 33.9958 140.995 33.8117 140.783 33.6849C140.578 33.5522 140.337 33.4858 140.059 33.4858C139.637 33.4858 139.308 33.6306 139.072 33.9203C138.843 34.204 138.728 34.5933 138.728 35.0882C138.728 35.5831 138.846 35.9754 139.081 36.2651C139.323 36.5488 139.649 36.6906 140.059 36.6906ZM146.838 37.6683C146.56 37.6683 146.334 37.5959 146.159 37.4511C145.984 37.3062 145.896 37.0769 145.896 36.763V31.2406H146.657V36.6996C146.657 36.7962 146.681 36.8717 146.729 36.926C146.783 36.9743 146.859 36.9984 146.955 36.9984H147.372V37.6683H146.838ZM148.239 37.6683V32.8702H148.999V37.6683H148.239ZM148.221 32.1187V31.2315H149.018V32.1187H148.221ZM150.611 37.6683V32.4356C150.611 32.0795 150.713 31.7928 150.918 31.5756C151.124 31.3522 151.443 31.2406 151.878 31.2406H152.638V31.9105H151.932C151.745 31.9105 151.603 31.9618 151.507 32.0644C151.416 32.167 151.371 32.3089 151.371 32.4899V37.6683H150.611ZM149.959 33.5401V32.8702H152.575V33.5401H149.959ZM155.188 37.777C154.735 37.777 154.343 37.6744 154.011 37.4692C153.685 37.264 153.431 36.9743 153.25 36.6001C153.075 36.2198 152.988 35.7762 152.988 35.2692C152.988 34.7623 153.075 34.3217 153.25 33.9475C153.431 33.5733 153.682 33.2836 154.002 33.0784C154.328 32.8671 154.711 32.7615 155.151 32.7615C155.568 32.7615 155.936 32.8611 156.256 33.0603C156.576 33.2534 156.823 33.5371 156.998 33.9113C157.179 34.2855 157.27 34.7411 157.27 35.2783V35.5046H153.784C153.815 36.0176 153.95 36.4039 154.192 36.6634C154.439 36.923 154.771 37.0527 155.188 37.0527C155.502 37.0527 155.758 36.9803 155.957 36.8354C156.162 36.6846 156.304 36.4884 156.383 36.247L157.197 36.3104C157.071 36.7389 156.829 37.092 156.473 37.3696C156.123 37.6412 155.695 37.777 155.188 37.777ZM153.784 34.8347H156.437C156.401 34.37 156.265 34.029 156.03 33.8117C155.8 33.5944 155.508 33.4858 155.151 33.4858C154.783 33.4858 154.479 33.6004 154.237 33.8298C154.002 34.0531 153.851 34.3881 153.784 34.8347ZM160.047 37.777C159.619 37.777 159.254 37.7076 158.952 37.5688C158.656 37.4299 158.424 37.2398 158.255 36.9984C158.092 36.7509 157.998 36.4703 157.974 36.1565L158.771 36.1021C158.819 36.3918 158.943 36.6242 159.142 36.7992C159.341 36.9682 159.643 37.0527 160.047 37.0527C160.373 37.0527 160.633 37.0014 160.826 36.8988C161.025 36.7902 161.125 36.6182 161.125 36.3828C161.125 36.256 161.094 36.1504 161.034 36.0659C160.974 35.9814 160.856 35.909 160.681 35.8486C160.506 35.7823 160.246 35.7189 159.902 35.6585C159.444 35.574 159.082 35.4714 158.816 35.3507C158.557 35.224 158.369 35.0701 158.255 34.889C158.146 34.7019 158.092 34.4816 158.092 34.2281C158.092 33.7996 158.249 33.4496 158.563 33.178C158.876 32.9003 159.323 32.7615 159.902 32.7615C160.295 32.7615 160.624 32.8339 160.889 32.9788C161.161 33.1176 161.372 33.3047 161.523 33.5401C161.68 33.7694 161.782 34.0229 161.831 34.3006L161.034 34.3549C160.998 34.1859 160.931 34.038 160.835 33.9113C160.738 33.7785 160.612 33.6759 160.455 33.6035C160.298 33.525 160.111 33.4858 159.893 33.4858C159.549 33.4858 159.296 33.5522 159.133 33.6849C158.97 33.8177 158.888 33.9867 158.888 34.1919C158.888 34.3488 158.925 34.4786 158.997 34.5812C159.076 34.6778 159.199 34.7593 159.368 34.8256C159.537 34.886 159.764 34.9403 160.047 34.9886C160.536 35.0731 160.916 35.1757 161.188 35.2964C161.46 35.4171 161.65 35.565 161.758 35.74C161.867 35.915 161.921 36.1293 161.921 36.3828C161.921 36.6785 161.837 36.932 161.668 37.1433C161.505 37.3485 161.282 37.5054 160.998 37.614C160.72 37.7227 160.403 37.777 160.047 37.777ZM167.067 37.6683C166.633 37.6683 166.31 37.5688 166.099 37.3696C165.893 37.1704 165.791 36.8596 165.791 36.4371V31.7476H166.551V36.419C166.551 36.6363 166.599 36.7872 166.696 36.8717C166.793 36.9562 166.94 36.9984 167.14 36.9984H167.828V37.6683H167.067ZM165.085 33.5401V32.8702H167.828V33.5401H165.085ZM168.803 37.6683V31.2406H169.564V33.9294L169.473 33.9113C169.533 33.6457 169.636 33.4284 169.781 33.2594C169.926 33.0905 170.104 32.9667 170.315 32.8883C170.526 32.8038 170.759 32.7615 171.012 32.7615C171.356 32.7615 171.646 32.84 171.881 32.9969C172.123 33.1478 172.304 33.362 172.424 33.6397C172.551 33.9113 172.614 34.2251 172.614 34.5812V37.6683H171.854V34.7985C171.854 34.3338 171.77 33.9897 171.601 33.7664C171.438 33.5431 171.187 33.4315 170.849 33.4315C170.463 33.4315 170.152 33.5491 169.917 33.7845C169.681 34.0199 169.564 34.3609 169.564 34.8075V37.6683H168.803ZM173.887 37.6683V32.8702H174.557L174.593 34.0833L174.52 34.0561C174.581 33.6457 174.71 33.347 174.91 33.1599C175.115 32.9667 175.386 32.8702 175.724 32.8702H176.195V33.5944H175.733C175.492 33.5944 175.29 33.6397 175.127 33.7302C174.97 33.8147 174.849 33.9445 174.765 34.1195C174.686 34.2885 174.647 34.5058 174.647 34.7713V37.6683H173.887ZM178.828 37.777C178.388 37.777 178.002 37.6744 177.67 37.4692C177.338 37.264 177.081 36.9743 176.9 36.6001C176.719 36.2198 176.629 35.7762 176.629 35.2692C176.629 34.7562 176.719 34.3126 176.9 33.9384C177.081 33.5642 177.338 33.2745 177.67 33.0693C178.002 32.8641 178.388 32.7615 178.828 32.7615C179.269 32.7615 179.652 32.8641 179.978 33.0693C180.31 33.2745 180.567 33.5642 180.748 33.9384C180.929 34.3126 181.019 34.7562 181.019 35.2692C181.019 35.7762 180.929 36.2198 180.748 36.6001C180.567 36.9743 180.31 37.264 179.978 37.4692C179.652 37.6744 179.269 37.777 178.828 37.777ZM178.828 37.0527C179.269 37.0527 179.61 36.8958 179.851 36.582C180.099 36.2621 180.223 35.8245 180.223 35.2692C180.223 34.714 180.099 34.2794 179.851 33.9656C179.61 33.6457 179.269 33.4858 178.828 33.4858C178.388 33.4858 178.044 33.6457 177.796 33.9656C177.549 34.2794 177.425 34.714 177.425 35.2692C177.425 35.8245 177.549 36.2621 177.796 36.582C178.044 36.8958 178.388 37.0527 178.828 37.0527ZM183.631 37.777C183.154 37.777 182.771 37.617 182.481 37.2972C182.198 36.9712 182.056 36.5246 182.056 35.9573V32.8702H182.816V35.7491C182.816 36.2138 182.898 36.5578 183.061 36.7811C183.23 36.9984 183.486 37.107 183.83 37.107C184.21 37.107 184.509 36.9863 184.726 36.7449C184.944 36.4975 185.052 36.1595 185.052 35.731V32.8702H185.813V37.6683H185.089V36.4824L185.206 36.5457C185.11 36.938 184.926 37.2428 184.654 37.4601C184.382 37.6714 184.041 37.777 183.631 37.777ZM188.994 39.1349C188.65 39.1349 188.339 39.0776 188.062 38.9629C187.784 38.8483 187.552 38.6853 187.365 38.4741C187.178 38.2628 187.051 38.0184 186.985 37.7408L187.781 37.6864C187.854 37.9098 187.98 38.0848 188.161 38.2115C188.349 38.3443 188.626 38.4107 188.994 38.4107C189.429 38.4107 189.761 38.3232 189.99 38.1482C190.226 37.9731 190.343 37.7106 190.343 37.3605V36.582C190.229 36.8354 190.045 37.0376 189.791 37.1885C189.538 37.3394 189.254 37.4148 188.94 37.4148C188.536 37.4148 188.174 37.3153 187.854 37.1161C187.54 36.9169 187.292 36.6423 187.111 36.2923C186.936 35.9422 186.849 35.5408 186.849 35.0882C186.849 34.6295 186.936 34.2281 187.111 33.8841C187.286 33.5341 187.528 33.2594 187.836 33.0603C188.149 32.8611 188.505 32.7615 188.904 32.7615C189.242 32.7615 189.544 32.84 189.809 32.9969C190.081 33.1538 190.271 33.3651 190.379 33.6306V32.8702H191.104V37.3424C191.104 37.7166 191.019 38.0365 190.85 38.3021C190.681 38.5737 190.44 38.7789 190.126 38.9177C189.812 39.0625 189.435 39.1349 188.994 39.1349ZM188.976 36.6906C189.387 36.6906 189.716 36.5488 189.963 36.2651C190.21 35.9754 190.337 35.5831 190.343 35.0882C190.349 34.7562 190.295 34.4726 190.18 34.2372C190.072 33.9958 189.912 33.8117 189.7 33.6849C189.495 33.5522 189.254 33.4858 188.976 33.4858C188.554 33.4858 188.225 33.6306 187.989 33.9203C187.76 34.204 187.645 34.5933 187.645 35.0882C187.645 35.5831 187.763 35.9754 187.998 36.2651C188.24 36.5488 188.566 36.6906 188.976 36.6906ZM192.417 37.6683V31.2406H193.178V33.9294L193.087 33.9113C193.148 33.6457 193.25 33.4284 193.395 33.2594C193.54 33.0905 193.718 32.9667 193.929 32.8883C194.14 32.8038 194.373 32.7615 194.626 32.7615C194.97 32.7615 195.26 32.84 195.495 32.9969C195.737 33.1478 195.918 33.362 196.039 33.6397C196.165 33.9113 196.229 34.2251 196.229 34.5812V37.6683H195.468V34.7985C195.468 34.3338 195.384 33.9897 195.215 33.7664C195.052 33.5431 194.801 33.4315 194.463 33.4315C194.077 33.4315 193.766 33.5491 193.531 33.7845C193.296 34.0199 193.178 34.3609 193.178 34.8075V37.6683H192.417ZM199.941 37.6683V31.2406H200.701V35.4503L203.037 32.8702H204.051L202.159 34.9071L204.133 37.6683H203.209L201.643 35.4232L200.701 36.419V37.6683H199.941ZM204.901 37.6683V32.8702H205.598L205.625 34.0923L205.535 34.0109C205.595 33.7272 205.701 33.4948 205.851 33.3138C206.002 33.1267 206.183 32.9878 206.395 32.8973C206.612 32.8068 206.844 32.7615 207.092 32.7615C207.46 32.7615 207.762 32.843 207.997 33.006C208.238 33.1689 208.416 33.3892 208.531 33.6668C208.652 33.9384 208.712 34.2432 208.712 34.5812V37.6683H207.952V34.7985C207.952 34.5027 207.916 34.2553 207.843 34.0561C207.777 33.8509 207.668 33.697 207.517 33.5944C207.366 33.4858 207.17 33.4315 206.929 33.4315C206.561 33.4315 206.256 33.5491 206.014 33.7845C205.779 34.0139 205.661 34.3519 205.661 34.7985V37.6683H204.901ZM211.929 37.777C211.489 37.777 211.102 37.6744 210.77 37.4692C210.438 37.264 210.182 36.9743 210.001 36.6001C209.82 36.2198 209.729 35.7762 209.729 35.2692C209.729 34.7562 209.82 34.3126 210.001 33.9384C210.182 33.5642 210.438 33.2745 210.77 33.0693C211.102 32.8641 211.489 32.7615 211.929 32.7615C212.37 32.7615 212.753 32.8641 213.079 33.0693C213.411 33.2745 213.667 33.5642 213.848 33.9384C214.029 34.3126 214.12 34.7562 214.12 35.2692C214.12 35.7762 214.029 36.2198 213.848 36.6001C213.667 36.9743 213.411 37.264 213.079 37.4692C212.753 37.6744 212.37 37.777 211.929 37.777ZM211.929 37.0527C212.37 37.0527 212.711 36.8958 212.952 36.582C213.2 36.2621 213.323 35.8245 213.323 35.2692C213.323 34.714 213.2 34.2794 212.952 33.9656C212.711 33.6457 212.37 33.4858 211.929 33.4858C211.489 33.4858 211.144 33.6457 210.897 33.9656C210.65 34.2794 210.526 34.714 210.526 35.2692C210.526 35.8245 210.65 36.2621 210.897 36.582C211.144 36.8958 211.489 37.0527 211.929 37.0527ZM215.975 37.6683L214.49 32.8702H215.323L216.445 36.8717L217.586 32.8702H218.401L219.541 36.8717L220.673 32.8702H221.506L220.021 37.6683H219.062L217.993 34.0199L216.925 37.6683H215.975ZM223.286 37.6683C223.008 37.6683 222.782 37.5959 222.607 37.4511C222.432 37.3062 222.344 37.0769 222.344 36.763V31.2406H223.105V36.6996C223.105 36.7962 223.129 36.8717 223.177 36.926C223.231 36.9743 223.307 36.9984 223.403 36.9984H223.82V37.6683H223.286ZM226.579 37.777C226.126 37.777 225.734 37.6744 225.402 37.4692C225.076 37.264 224.822 36.9743 224.641 36.6001C224.466 36.2198 224.379 35.7762 224.379 35.2692C224.379 34.7623 224.466 34.3217 224.641 33.9475C224.822 33.5733 225.073 33.2836 225.393 33.0784C225.719 32.8671 226.102 32.7615 226.542 32.7615C226.959 32.7615 227.327 32.8611 227.647 33.0603C227.967 33.2534 228.214 33.5371 228.389 33.9113C228.57 34.2855 228.661 34.7411 228.661 35.2783V35.5046H225.175C225.206 36.0176 225.341 36.4039 225.583 36.6634C225.83 36.923 226.162 37.0527 226.579 37.0527C226.892 37.0527 227.149 36.9803 227.348 36.8354C227.553 36.6846 227.695 36.4884 227.774 36.247L228.588 36.3104C228.462 36.7389 228.22 37.092 227.864 37.3696C227.514 37.6412 227.086 37.777 226.579 37.777ZM225.175 34.8347H227.828C227.792 34.37 227.656 34.029 227.421 33.8117C227.191 33.5944 226.898 33.4858 226.542 33.4858C226.174 33.4858 225.869 33.6004 225.628 33.8298C225.393 34.0531 225.242 34.3881 225.175 34.8347ZM231.393 37.777C230.976 37.777 230.614 37.6744 230.307 37.4692C230.005 37.264 229.772 36.9743 229.609 36.6001C229.446 36.2259 229.365 35.7823 229.365 35.2692C229.365 34.7562 229.446 34.3126 229.609 33.9384C229.772 33.5642 230.005 33.2745 230.307 33.0693C230.614 32.8641 230.976 32.7615 231.393 32.7615C231.713 32.7615 232.006 32.8309 232.271 32.9697C232.537 33.1025 232.736 33.2926 232.869 33.5401V31.2406H233.629V37.6683H232.941L232.914 36.9441C232.781 37.2036 232.579 37.4088 232.307 37.5597C232.036 37.7045 231.731 37.777 231.393 37.777ZM231.547 37.0527C231.83 37.0527 232.069 36.9803 232.262 36.8354C232.461 36.6906 232.612 36.4854 232.715 36.2198C232.817 35.9482 232.869 35.6314 232.869 35.2692C232.869 34.895 232.817 34.5752 232.715 34.3096C232.612 34.0441 232.461 33.8419 232.262 33.703C232.069 33.5582 231.83 33.4858 231.547 33.4858C231.124 33.4858 230.786 33.6457 230.533 33.9656C230.285 34.2794 230.162 34.714 230.162 35.2692C230.162 35.8185 230.285 36.253 230.533 36.5729C230.786 36.8928 231.124 37.0527 231.547 37.0527ZM236.806 39.1349C236.462 39.1349 236.152 39.0776 235.874 38.9629C235.596 38.8483 235.364 38.6853 235.177 38.4741C234.99 38.2628 234.863 38.0184 234.797 37.7408L235.593 37.6864C235.666 37.9098 235.792 38.0848 235.973 38.2115C236.161 38.3443 236.438 38.4107 236.806 38.4107C237.241 38.4107 237.573 38.3232 237.802 38.1482C238.038 37.9731 238.155 37.7106 238.155 37.3605V36.582C238.041 36.8354 237.857 37.0376 237.603 37.1885C237.35 37.3394 237.066 37.4148 236.752 37.4148C236.348 37.4148 235.986 37.3153 235.666 37.1161C235.352 36.9169 235.104 36.6423 234.923 36.2923C234.748 35.9422 234.661 35.5408 234.661 35.0882C234.661 34.6295 234.748 34.2281 234.923 33.8841C235.098 33.5341 235.34 33.2594 235.648 33.0603C235.961 32.8611 236.317 32.7615 236.716 32.7615C237.054 32.7615 237.356 32.84 237.621 32.9969C237.893 33.1538 238.083 33.3651 238.191 33.6306V32.8702H238.916V37.3424C238.916 37.7166 238.831 38.0365 238.662 38.3021C238.493 38.5737 238.252 38.7789 237.938 38.9177C237.624 39.0625 237.247 39.1349 236.806 39.1349ZM236.788 36.6906C237.199 36.6906 237.528 36.5488 237.775 36.2651C238.023 35.9754 238.149 35.5831 238.155 35.0882C238.161 34.7562 238.107 34.4726 237.992 34.2372C237.884 33.9958 237.724 33.8117 237.513 33.6849C237.307 33.5522 237.066 33.4858 236.788 33.4858C236.366 33.4858 236.037 33.6306 235.801 33.9203C235.572 34.204 235.457 34.5933 235.457 35.0882C235.457 35.5831 235.575 35.9754 235.811 36.2651C236.052 36.5488 236.378 36.6906 236.788 36.6906ZM242.148 37.777C241.695 37.777 241.303 37.6744 240.971 37.4692C240.645 37.264 240.391 36.9743 240.21 36.6001C240.035 36.2198 239.948 35.7762 239.948 35.2692C239.948 34.7623 240.035 34.3217 240.21 33.9475C240.391 33.5733 240.642 33.2836 240.962 33.0784C241.288 32.8671 241.671 32.7615 242.111 32.7615C242.528 32.7615 242.896 32.8611 243.216 33.0603C243.536 33.2534 243.783 33.5371 243.958 33.9113C244.139 34.2855 244.23 34.7411 244.23 35.2783V35.5046H240.744C240.775 36.0176 240.91 36.4039 241.152 36.6634C241.399 36.923 241.731 37.0527 242.148 37.0527C242.461 37.0527 242.718 36.9803 242.917 36.8354C243.122 36.6846 243.264 36.4884 243.343 36.247L244.157 36.3104C244.031 36.7389 243.789 37.092 243.433 37.3696C243.083 37.6412 242.655 37.777 242.148 37.777ZM240.744 34.8347H243.397C243.361 34.37 243.225 34.029 242.99 33.8117C242.76 33.5944 242.467 33.4858 242.111 33.4858C241.743 33.4858 241.438 33.6004 241.197 33.8298C240.962 34.0531 240.811 34.3881 240.744 34.8347Z" fill="#212429"/>
<path d="M3.34679 35.1616L13.5757 16.7307L17.7239 24.1785L10.9831 36.3872L10.6532 37H2.3569L3.34679 35.1616ZM37.3804 35.1616L38.3703 37H30.074L29.744 36.3872L23.5218 25.1684L20.4579 19.6532L20.3636 19.4647L16.2154 11.9698L16.5454 11.357L19.2323 6.45463L19.5622 5.7947H21.1649L21.4478 6.45463L24.1818 11.357L37.3804 35.1616Z" fill="#212429"/>
<path d="M48.7749 5.88897V13.2425L42.1755 19.8418V5.88897H48.7749ZM69.8455 34.9259L71.9667 37H62.6334L62.2563 36.67L51.7445 26.1111L48.7749 29.0808V37H42.1755V26.3468L52.7816 15.7408V15.6937L62.6334 5.88897H71.9667L69.8455 8.01018L56.4112 21.4445L69.8455 34.9259Z" fill="#B3E67D"/>
</svg>
