<svg width="148" height="43" viewBox="0 0 148 43" fill="none" xmlns="http://www.w3.org/2000/svg">
<path fill-rule="evenodd" clip-rule="evenodd" d="M78.3704 40.3087C78.3704 41.4132 77.4749 42.3087 76.3704 42.3087H72.0357C71.5044 42.3087 71.0737 41.878 71.0737 41.3467C71.0737 40.4666 69.9441 40.0095 69.2449 40.544C67.103 42.1813 64.6037 43 61.7472 43C57.7605 43 54.4323 41.5528 51.7623 38.6585C49.0924 35.7642 47.7574 32.1693 47.7574 27.874C47.7574 23.5786 49.0924 19.9837 51.7623 17.0894C54.4323 14.1951 57.7605 12.7479 61.7472 12.7479C63.6352 12.7479 65.3639 13.0997 66.9334 13.8032C68.6033 14.5517 71.0737 13.5095 71.0737 11.6795V3.5209C71.0737 2.41633 71.9692 1.5209 73.0737 1.5209H76.3704C77.4749 1.5209 78.3704 2.41633 78.3704 3.5209V40.3087ZM63.1462 19.8823C60.8968 19.8823 59.0224 20.6474 57.5228 22.1775C56.0233 23.7076 55.2735 25.6064 55.2735 27.874C55.2735 30.1415 56.0233 32.0403 57.5228 33.5704C59.0224 35.1005 60.8968 35.8656 63.1462 35.8656C65.4138 35.8656 67.2974 35.1005 68.797 33.5704C70.3148 32.0403 71.0737 30.1415 71.0737 27.874C71.0737 25.6064 70.3148 23.7076 68.797 22.1775C67.2974 20.6474 65.4138 19.8823 63.1462 19.8823Z" fill="#212429"/>
<path fill-rule="evenodd" clip-rule="evenodd" d="M98.7791 12.7479C103.077 12.7479 106.661 14.1951 109.532 17.0894C112.403 19.9653 113.839 23.5786 113.839 27.9293C113.839 28.221 113.833 28.5072 113.822 28.7879C113.783 29.7881 112.927 30.5286 111.926 30.5286H94.1207C92.796 30.5286 91.8293 31.8204 92.5612 32.9246C93.0571 33.6727 93.6759 34.3212 94.4175 34.8701C95.8622 35.9393 97.6178 36.474 99.6843 36.474C101.348 36.474 102.875 36.1421 104.265 35.4785C104.923 35.1555 105.516 34.7933 106.043 34.3919C106.96 33.6931 108.287 33.5517 109.151 34.3151L110.985 35.9353C111.795 36.6513 111.899 37.8936 111.108 38.6311C109.861 39.794 108.421 40.7433 106.789 41.4791C104.558 42.493 102.116 43 99.4648 43C96.4657 43 93.75 42.3363 91.3178 41.009C88.8856 39.6817 86.9837 37.8566 85.6122 35.5338C84.2406 33.1925 83.5548 30.6024 83.5548 27.7633C83.5548 24.9612 84.2132 22.4171 85.5299 20.1312C86.8649 17.8268 88.6936 16.0201 91.0161 14.7113C93.3569 13.4024 95.9445 12.7479 98.7791 12.7479ZM98.7242 19.191C96.9503 19.191 95.405 19.7348 94.0883 20.8225C93.4105 21.3729 92.8466 22.0211 92.3966 22.7669C91.7231 23.883 92.6932 25.1363 93.9967 25.1363H103.479C104.783 25.1363 105.752 23.8826 105.074 22.7693C104.619 22.0224 104.048 21.3735 103.36 20.8225C102.043 19.7348 100.498 19.191 98.7242 19.191Z" fill="#212429"/>
<path fill-rule="evenodd" clip-rule="evenodd" d="M16.5135 3.23537C20.2441 3.23537 23.3712 4.46131 25.8949 6.91318C28.4185 9.34662 29.6803 12.3884 29.6803 16.0386C29.6803 18.8039 28.8757 21.2465 27.2664 23.3666C26.2048 24.7689 24.9152 25.888 23.3976 26.724C22.2324 27.3659 21.6923 28.8674 22.4295 29.9747L28.5712 39.2004C29.456 40.5296 28.5031 42.3087 26.9063 42.3087H22.4069C21.7258 42.3087 21.0915 41.962 20.7236 41.3887L12.9617 29.2916C12.5938 28.7184 11.9595 28.3717 11.2784 28.3717H9.76297C8.6584 28.3717 7.76297 29.2671 7.76297 30.3717V40.3087C7.76297 41.4132 6.86754 42.3087 5.76297 42.3087H2C0.895432 42.3087 0 41.4132 0 40.3087V5.23537C0 4.1308 0.895431 3.23537 2 3.23537H16.5135ZM7.76297 19.5691C7.76297 20.6737 8.6584 21.5691 9.76297 21.5691H16.3489C17.8667 21.5691 19.1377 21.0529 20.1618 20.0206C21.1859 18.9698 21.6979 17.6609 21.6979 16.0939C21.6979 14.5269 21.1859 13.218 20.1618 12.1672C19.1377 11.1164 17.8667 10.591 16.3489 10.591H9.76297C8.6584 10.591 7.76297 11.4864 7.76297 12.591V19.5691Z" fill="#212429"/>
<path d="M42.4083 40.3087C42.4083 41.4132 41.5129 42.3087 40.4083 42.3087H37.1117C36.0071 42.3087 35.1117 41.4132 35.1117 40.3087V15.4392C35.1117 14.3347 36.0071 13.4392 37.1117 13.4392H40.4083C41.5129 13.4392 42.4083 14.3347 42.4083 15.4392V40.3087Z" fill="#212429"/>
<path d="M38.76 0C40.0584 0 41.1465 0.442444 42.0243 1.32733C42.9204 2.21222 43.3684 3.29989 43.3684 4.59035C43.3684 5.88081 42.9204 6.96849 42.0243 7.85338C41.1465 8.73826 40.0584 9.18071 38.76 9.18071C37.4616 9.18071 36.3644 8.73826 35.4683 7.85338C34.5905 6.96849 34.1516 5.88081 34.1516 4.59035C34.1516 3.29989 34.5905 2.21222 35.4683 1.32733C36.3644 0.442444 37.4616 0 38.76 0Z" fill="#212429"/>
<path d="M132.611 12.7424C136.982 12.7424 140.639 14.1895 143.584 17.0839C146.528 19.9782 148 23.573 148 27.8684C148 32.1638 146.528 35.7587 143.584 38.653C140.639 41.5473 136.982 42.9945 132.611 42.9945C128.241 42.9945 124.574 41.5473 121.611 38.653C118.667 35.7587 117.195 32.1638 117.195 27.8684C117.195 23.573 118.667 19.9782 121.611 17.0839C121.961 16.7424 122.534 16.9462 122.618 17.4275L123.889 24.6926C123.93 24.931 124.215 25.0341 124.4 24.8778C124.67 24.6493 125.182 25.0409 125.082 25.3801C124.853 26.1532 124.739 26.9827 124.739 27.8684C124.739 30.136 125.488 32.0348 126.988 33.5649C128.487 35.095 130.362 35.8601 132.611 35.8601C134.879 35.8601 136.753 35.1042 138.235 33.5925C139.716 32.0624 140.456 30.1544 140.456 27.8684C140.456 25.5825 139.716 23.6837 138.235 22.172C136.753 20.6419 134.879 19.8768 132.611 19.8768C131.995 19.8768 131.407 19.935 130.847 20.0504C130.624 20.0965 130.444 19.7656 130.618 19.6185C130.737 19.5179 130.703 19.3262 130.556 19.2725L125.692 17.4876C124.253 16.9595 123.951 15.0965 125.317 14.3992C127.479 13.2946 129.911 12.7424 132.611 12.7424Z" fill="#B3E67D"/>
</svg>
