<svg width="197" height="60" viewBox="0 0 197 60" fill="none" xmlns="http://www.w3.org/2000/svg">
<path fill-rule="evenodd" clip-rule="evenodd" d="M18.8637 19.5847C9.95072 21.0829 1.49816 15.063 0 6.14996C8.91301 4.65181 17.3656 10.6717 18.8637 19.5847Z" fill="#1B4B3F"/>
<path fill-rule="evenodd" clip-rule="evenodd" d="M40.199 36.7365C42.5382 28.0065 51.5251 22.8179 60.2551 25.1571C57.9159 33.8872 48.929 39.0758 40.199 36.7365Z" fill="#95C861"/>
<path fill-rule="evenodd" clip-rule="evenodd" d="M49.3666 15.8615C40.9676 15.8615 34.1487 22.6211 34.1487 30.9471C34.1487 31.2358 34.1569 31.5225 34.1731 31.8072V56.0236H21.4781V31.8072H21.4912C21.4825 31.5216 21.4781 31.2348 21.4781 30.9471C21.4781 15.555 33.9746 3.05859 49.3666 3.05859H59.8286V15.8615H49.3666Z" fill="#1B4B3F"/>
<path d="M86.1466 1.5293V57.4556" stroke="#1B4B3F" stroke-width="2.5488"/>
<path d="M117.619 47.5103H115.695V42.3629C115.695 41.5792 115.547 41.0152 115.25 40.6709C114.965 40.3146 114.419 40.1365 113.612 40.1365C112.887 40.1365 112.347 40.3087 111.991 40.653C111.646 40.9855 111.474 41.5555 111.474 42.3629L111.136 42.3985L110.976 40.3146H111.261C111.403 40.0059 111.599 39.715 111.848 39.4419C112.109 39.1569 112.442 38.9254 112.846 38.7473C113.249 38.5692 113.742 38.4801 114.324 38.4801C115.096 38.4801 115.719 38.6285 116.194 38.9254C116.681 39.2222 117.037 39.6319 117.263 40.1543C117.5 40.6768 117.619 41.2764 117.619 41.9532V47.5103ZM105.329 47.5103H103.406V38.6582H105.169V41.3121L105.329 41.4011V47.5103ZM111.474 47.5103H109.551V42.3629C109.551 41.5792 109.402 41.0152 109.105 40.6709C108.82 40.3146 108.274 40.1365 107.467 40.1365C106.742 40.1365 106.202 40.3028 105.846 40.6352C105.502 40.9677 105.329 41.5377 105.329 42.3451L104.991 42.3985L104.831 40.3146H105.258C105.389 39.994 105.579 39.6972 105.828 39.4241C106.089 39.151 106.422 38.9254 106.826 38.7473C107.229 38.5692 107.71 38.4801 108.268 38.4801C109.016 38.4801 109.622 38.6285 110.085 38.9254C110.56 39.2222 110.91 39.6319 111.136 40.1543C111.361 40.6768 111.474 41.2764 111.474 41.9532V47.5103ZM126.924 47.5103H125.143V45.7648L125.089 45.2839V41.882C125.089 41.2171 124.929 40.7659 124.608 40.5284C124.3 40.2909 123.795 40.1722 123.094 40.1722C122.394 40.1722 121.889 40.2968 121.58 40.5462C121.284 40.7955 121.135 41.2111 121.135 41.7929V42.0601H119.283V41.882C119.283 41.2171 119.443 40.6293 119.764 40.1187C120.096 39.6081 120.553 39.2104 121.135 38.9254C121.729 38.6285 122.418 38.4801 123.201 38.4801C124.032 38.4801 124.721 38.6345 125.267 38.9432C125.813 39.2519 126.223 39.6794 126.496 40.2256C126.781 40.7599 126.924 41.3952 126.924 42.1314V47.5103ZM121.848 47.6884C121.052 47.6884 120.381 47.4865 119.835 47.0828C119.301 46.6672 119.033 46.0794 119.033 45.3195C119.033 44.8208 119.146 44.4052 119.372 44.0727C119.609 43.7403 119.948 43.4672 120.387 43.2534C120.826 43.0397 121.361 42.8913 121.99 42.8082L125.267 42.3451V43.6987L122.275 44.144C121.764 44.2152 121.408 44.3221 121.206 44.4646C121.005 44.6071 120.904 44.8446 120.904 45.177C120.904 45.5214 121.022 45.7707 121.26 45.9251C121.509 46.0794 121.913 46.1566 122.471 46.1566C122.898 46.1566 123.308 46.0913 123.7 45.9607C124.104 45.8182 124.436 45.5867 124.697 45.2661C124.959 44.9336 125.089 44.4705 125.089 43.8768L125.339 46.1388L125.054 46.121C124.887 46.3941 124.656 46.6494 124.359 46.8869C124.074 47.1244 123.724 47.3203 123.308 47.4746C122.892 47.6171 122.406 47.6884 121.848 47.6884ZM132.916 50.7162C132.085 50.7162 131.361 50.5856 130.743 50.3244C130.138 50.0632 129.669 49.6832 129.336 49.1845C129.004 48.6976 128.838 48.098 128.838 47.3856H130.761C130.761 47.7893 130.821 48.1099 130.939 48.3474C131.058 48.5848 131.278 48.7511 131.598 48.8461C131.919 48.9529 132.376 49.0064 132.97 49.0064C133.552 49.0064 133.997 48.9411 134.306 48.8105C134.614 48.6798 134.828 48.4602 134.947 48.1514C135.066 47.8427 135.125 47.4153 135.125 46.8691V40.9915L135.267 40.7599V38.6582H137.048V46.8691C137.048 47.7359 136.882 48.4483 136.55 49.0064C136.217 49.5763 135.742 50.0038 135.125 50.2888C134.519 50.5737 133.783 50.7162 132.916 50.7162ZM132.168 46.6731C130.945 46.6731 130.007 46.305 129.354 45.5689C128.701 44.8208 128.375 43.8234 128.375 42.5766C128.375 41.3299 128.707 40.3384 129.372 39.6022C130.037 38.8541 130.993 38.4801 132.24 38.4801C132.964 38.4801 133.587 38.6285 134.11 38.9254C134.632 39.2104 134.994 39.6081 135.196 40.1187H135.552L135.463 42.2917H135.125C135.125 41.7929 135.024 41.3833 134.822 41.0627C134.62 40.7421 134.335 40.5046 133.967 40.3503C133.599 40.1959 133.172 40.1187 132.685 40.1187C132.127 40.1187 131.67 40.1959 131.313 40.3503C130.969 40.5046 130.714 40.7659 130.548 41.1339C130.381 41.4902 130.298 41.9711 130.298 42.5766C130.298 43.0278 130.346 43.4137 130.441 43.7343C130.536 44.0431 130.684 44.2924 130.886 44.4824C131.088 44.6724 131.343 44.8149 131.652 44.9099C131.961 44.993 132.317 45.0345 132.72 45.0345C133.207 45.0345 133.629 44.9574 133.985 44.803C134.341 44.6368 134.62 44.3933 134.822 44.0727C135.024 43.7521 135.125 43.3425 135.125 42.8438H135.517V45.1058H135.054C134.852 45.5332 134.502 45.9013 134.003 46.2101C133.504 46.5188 132.893 46.6731 132.168 46.6731ZM146.439 47.5103H144.658V45.7648L144.605 45.2839V41.882C144.605 41.2171 144.444 40.7659 144.124 40.5284C143.815 40.2909 143.31 40.1722 142.61 40.1722C141.909 40.1722 141.405 40.2968 141.096 40.5462C140.799 40.7955 140.651 41.2111 140.651 41.7929V42.0601H138.798V41.882C138.798 41.2171 138.959 40.6293 139.279 40.1187C139.612 39.6081 140.069 39.2104 140.651 38.9254C141.244 38.6285 141.933 38.4801 142.717 38.4801C143.548 38.4801 144.237 38.6345 144.783 38.9432C145.329 39.2519 145.739 39.6794 146.012 40.2256C146.297 40.7599 146.439 41.3952 146.439 42.1314V47.5103ZM141.363 47.6884C140.568 47.6884 139.897 47.4865 139.35 47.0828C138.816 46.6672 138.549 46.0794 138.549 45.3195C138.549 44.8208 138.662 44.4052 138.887 44.0727C139.125 43.7403 139.463 43.4672 139.903 43.2534C140.342 43.0397 140.876 42.8913 141.506 42.8082L144.783 42.3451V43.6987L141.791 44.144C141.28 44.2152 140.924 44.3221 140.722 44.4646C140.52 44.6071 140.419 44.8446 140.419 45.177C140.419 45.5214 140.538 45.7707 140.775 45.9251C141.025 46.0794 141.428 46.1566 141.986 46.1566C142.414 46.1566 142.824 46.0913 143.215 45.9607C143.619 45.8182 143.952 45.5867 144.213 45.2661C144.474 44.9336 144.605 44.4705 144.605 43.8768L144.854 46.1388L144.569 46.121C144.403 46.3941 144.171 46.6494 143.874 46.8869C143.589 47.1244 143.239 47.3203 142.824 47.4746C142.408 47.6171 141.921 47.6884 141.363 47.6884ZM155.982 47.5103H147.611V45.9963L151.921 41.6148L153.061 40.4927V40.3503H151.921H147.878V38.6582H155.714V40.279L151.297 44.6783L150.264 45.6757L150.247 45.8182H151.297H155.982V47.5103ZM158.898 37.5361H156.993L156.975 35.5769H158.898V37.5361ZM158.916 47.5103H156.993V38.6048H158.916V47.5103ZM168.929 47.5103H167.005V42.3629C167.005 41.5792 166.857 41.0152 166.56 40.6709C166.263 40.3146 165.705 40.1365 164.886 40.1365C164.364 40.1365 163.936 40.2137 163.604 40.3681C163.271 40.5106 163.022 40.748 162.856 41.0805C162.689 41.4011 162.606 41.8404 162.606 42.3985H162.268L162.107 40.3146H162.535C162.666 39.994 162.861 39.6972 163.123 39.4241C163.384 39.151 163.716 38.9254 164.12 38.7473C164.536 38.5692 165.028 38.4801 165.598 38.4801C166.37 38.4801 167 38.6285 167.486 38.9254C167.973 39.2222 168.335 39.6319 168.573 40.1543C168.81 40.6768 168.929 41.2764 168.929 41.9532V47.5103ZM162.606 47.5103H160.683V38.6582H162.446V41.3121L162.606 41.4011V47.5103ZM174.672 47.6884C173.71 47.6884 172.909 47.4984 172.268 47.1184C171.627 46.7266 171.152 46.1863 170.843 45.4976C170.534 44.7971 170.38 43.9896 170.38 43.0753C170.38 42.161 170.552 41.3595 170.896 40.6709C171.253 39.9822 171.751 39.4478 172.392 39.0679C173.034 38.676 173.794 38.4801 174.672 38.4801C175.468 38.4801 176.168 38.6345 176.774 38.9432C177.391 39.24 177.866 39.6734 178.199 40.2434C178.543 40.8133 178.715 41.502 178.715 42.3095C178.715 42.5469 178.703 42.7785 178.68 43.0041C178.668 43.2178 178.65 43.3959 178.626 43.5384H171.288V42.256H177.059L176.863 42.4341C176.911 41.8879 176.851 41.4427 176.685 41.0983C176.531 40.754 176.275 40.4987 175.919 40.3325C175.575 40.1662 175.141 40.0831 174.619 40.0831C173.681 40.0831 173.04 40.3206 172.695 40.7955C172.351 41.2586 172.179 41.8998 172.179 42.7191V43.2534C172.179 43.8471 172.25 44.3518 172.392 44.7674C172.547 45.1711 172.808 45.4739 173.176 45.6757C173.544 45.8776 174.049 45.9785 174.69 45.9785C175.438 45.9785 175.967 45.8598 176.275 45.6223C176.584 45.3848 176.738 45.0702 176.738 44.6783V44.5358H178.644V44.6961C178.644 45.3017 178.478 45.8301 178.145 46.2813C177.813 46.7206 177.35 47.065 176.756 47.3143C176.174 47.5637 175.48 47.6884 174.672 47.6884Z" fill="#1B4B3F"/>
<path d="M105.793 24H103.869V15.2192C103.869 14.5305 104 13.9546 104.261 13.4916C104.522 13.0285 104.908 12.6782 105.419 12.4407C105.941 12.1914 106.582 12.0667 107.342 12.0667C107.461 12.0667 107.58 12.0667 107.698 12.0667C107.817 12.0667 107.936 12.0667 108.055 12.0667V13.5984H106.986C106.558 13.5984 106.244 13.6815 106.042 13.8478C105.84 14.014 105.739 14.2871 105.739 14.6671V15.4508L105.793 15.9138V24ZM108.055 16.751H102.569V15.148H108.055V16.751ZM116.366 24H114.585V22.2545L114.531 21.7736V18.3717C114.531 17.7068 114.371 17.2556 114.05 17.0181C113.742 16.7806 113.237 16.6619 112.536 16.6619C111.836 16.6619 111.331 16.7866 111.023 17.0359C110.726 17.2853 110.577 17.7009 110.577 18.2827V18.5499H108.725V18.3717C108.725 17.7068 108.885 17.119 109.206 16.6085C109.538 16.0979 109.995 15.7001 110.577 15.4151C111.171 15.1183 111.86 14.9699 112.643 14.9699C113.475 14.9699 114.163 15.1242 114.709 15.4329C115.256 15.7417 115.665 16.1691 115.938 16.7153C116.223 17.2497 116.366 17.8849 116.366 18.6211V24ZM111.29 24.1781C110.494 24.1781 109.823 23.9763 109.277 23.5725C108.743 23.1569 108.476 22.5692 108.476 21.8093C108.476 21.3106 108.588 20.895 108.814 20.5625C109.051 20.23 109.39 19.9569 109.829 19.7432C110.269 19.5295 110.803 19.381 111.432 19.2979L114.709 18.8348V20.1885L111.717 20.6337C111.207 20.705 110.85 20.8118 110.649 20.9543C110.447 21.0968 110.346 21.3343 110.346 21.6668C110.346 22.0111 110.464 22.2605 110.702 22.4148C110.951 22.5692 111.355 22.6464 111.913 22.6464C112.341 22.6464 112.75 22.5811 113.142 22.4504C113.546 22.308 113.878 22.0764 114.139 21.7558C114.401 21.4234 114.531 20.9603 114.531 20.3666L114.781 22.6286L114.496 22.6107C114.329 22.8838 114.098 23.1391 113.801 23.3766C113.516 23.6141 113.166 23.81 112.75 23.9644C112.335 24.1069 111.848 24.1781 111.29 24.1781ZM120.131 24H118.208V15.0945H119.971V17.5703L120.131 17.6593V24ZM120.131 18.2293H119.686V16.5016H120.06C120.238 16.086 120.529 15.7298 120.933 15.4329C121.348 15.1242 121.883 14.9699 122.536 14.9699C123.165 14.9699 123.664 15.1064 124.032 15.3795C124.412 15.6526 124.685 16.0148 124.851 16.466C125.017 16.9172 125.101 17.4218 125.101 17.9799V18.5677H123.177V18.2114C123.177 17.6178 123.076 17.2022 122.874 16.9647C122.672 16.7272 122.292 16.6085 121.734 16.6085C121.152 16.6085 120.737 16.7331 120.488 16.9825C120.25 17.22 120.131 17.6356 120.131 18.2293ZM140.509 24H138.585V18.8526C138.585 18.069 138.437 17.5049 138.14 17.1606C137.855 16.8044 137.309 16.6263 136.501 16.6263C135.777 16.6263 135.237 16.7984 134.881 17.1428C134.536 17.4753 134.364 18.0452 134.364 18.8526L134.026 18.8883L133.865 16.8044H134.15C134.293 16.4957 134.489 16.2048 134.738 15.9317C134.999 15.6467 135.332 15.4151 135.736 15.237C136.139 15.0589 136.632 14.9699 137.214 14.9699C137.986 14.9699 138.609 15.1183 139.084 15.4151C139.571 15.712 139.927 16.1216 140.153 16.6441C140.39 17.1665 140.509 17.7662 140.509 18.443V24ZM128.219 24H126.296V15.148H128.059V17.8018L128.219 17.8909V24ZM134.364 24H132.44V18.8526C132.44 18.069 132.292 17.5049 131.995 17.1606C131.71 16.8044 131.164 16.6263 130.357 16.6263C129.632 16.6263 129.092 16.7925 128.736 17.125C128.391 17.4575 128.219 18.0274 128.219 18.8348L127.881 18.8883L127.721 16.8044H128.148C128.279 16.4838 128.469 16.1869 128.718 15.9138C128.979 15.6407 129.312 15.4151 129.715 15.237C130.119 15.0589 130.6 14.9699 131.158 14.9699C131.906 14.9699 132.512 15.1183 132.975 15.4151C133.45 15.712 133.8 16.1216 134.026 16.6441C134.251 17.1665 134.364 17.7662 134.364 18.443V24ZM146.251 24.1781C145.29 24.1781 144.488 23.9881 143.847 23.6082C143.206 23.2163 142.731 22.6761 142.422 21.9874C142.113 21.2868 141.959 20.4794 141.959 19.5651C141.959 18.6508 142.131 17.8493 142.475 17.1606C142.832 16.4719 143.33 15.9376 143.972 15.5576C144.613 15.1658 145.373 14.9699 146.251 14.9699C147.047 14.9699 147.747 15.1242 148.353 15.4329C148.97 15.7298 149.445 16.1632 149.778 16.7331C150.122 17.3031 150.294 17.9918 150.294 18.7992C150.294 19.0367 150.283 19.2682 150.259 19.4938C150.247 19.7076 150.229 19.8857 150.205 20.0282H142.867V18.7458H148.638L148.442 18.9239C148.49 18.3777 148.43 17.9324 148.264 17.5881C148.11 17.2437 147.854 16.9884 147.498 16.8222C147.154 16.656 146.72 16.5728 146.198 16.5728C145.26 16.5728 144.619 16.8103 144.274 17.2853C143.93 17.7484 143.758 18.3896 143.758 19.2089V19.7432C143.758 20.3369 143.829 20.8415 143.972 21.2571C144.126 21.6608 144.387 21.9636 144.755 22.1655C145.123 22.3673 145.628 22.4683 146.269 22.4683C147.017 22.4683 147.546 22.3495 147.854 22.112C148.163 21.8746 148.317 21.5599 148.317 21.1681V21.0256H150.223V21.1859C150.223 21.7914 150.057 22.3198 149.724 22.771C149.392 23.2104 148.929 23.5547 148.335 23.8041C147.753 24.0534 147.059 24.1781 146.251 24.1781ZM153.753 24H151.829V15.0945H153.593V17.5703L153.753 17.6593V24ZM153.753 18.2293H153.308V16.5016H153.682C153.86 16.086 154.151 15.7298 154.554 15.4329C154.97 15.1242 155.504 14.9699 156.157 14.9699C156.787 14.9699 157.285 15.1064 157.654 15.3795C158.033 15.6526 158.307 16.0148 158.473 16.466C158.639 16.9172 158.722 17.4218 158.722 17.9799V18.5677H156.799V18.2114C156.799 17.6178 156.698 17.2022 156.496 16.9647C156.294 16.7272 155.914 16.6085 155.356 16.6085C154.774 16.6085 154.358 16.7331 154.109 16.9825C153.872 17.22 153.753 17.6356 153.753 18.2293ZM163.796 24.1781C162.502 24.1781 161.522 23.9228 160.858 23.4122C160.193 22.8898 159.86 22.0883 159.86 21.0078V20.9721H161.712V21.2927C161.712 21.6015 161.772 21.8568 161.891 22.0586C162.021 22.2486 162.235 22.3911 162.532 22.4861C162.84 22.5692 163.274 22.6107 163.832 22.6107C164.307 22.6107 164.663 22.5751 164.901 22.5039C165.15 22.4208 165.316 22.308 165.399 22.1655C165.482 22.023 165.524 21.8449 165.524 21.6311C165.524 21.2749 165.399 21.0256 165.15 20.8831C164.901 20.7287 164.455 20.5922 163.814 20.4734L162.425 20.2419C161.902 20.135 161.445 19.9866 161.053 19.7966C160.673 19.5948 160.377 19.3217 160.163 18.9773C159.961 18.6211 159.86 18.1758 159.86 17.6415C159.86 16.8459 160.175 16.2048 160.804 15.7179C161.433 15.2192 162.324 14.9699 163.476 14.9699C164.176 14.9699 164.8 15.0827 165.346 15.3083C165.892 15.5339 166.325 15.8723 166.646 16.3235C166.967 16.7747 167.127 17.3387 167.127 18.0155V18.1758H165.292V17.9621C165.292 17.6771 165.245 17.4337 165.15 17.2318C165.055 17.0181 164.877 16.8519 164.616 16.7331C164.354 16.6144 163.957 16.555 163.422 16.555C162.722 16.555 162.259 16.6441 162.033 16.8222C161.807 17.0003 161.695 17.2615 161.695 17.6059C161.695 17.9502 161.796 18.1936 161.997 18.3361C162.211 18.4667 162.627 18.5974 163.244 18.728L164.758 19.0129C165.328 19.1198 165.803 19.2801 166.183 19.4938C166.563 19.7076 166.848 19.9866 167.038 20.3309C167.24 20.6753 167.341 21.0849 167.341 21.5599C167.341 22.3911 167.026 23.0382 166.397 23.5013C165.779 23.9525 164.912 24.1781 163.796 24.1781ZM170.905 14.8274H168.465V12.0667H170.905V14.8274ZM169.142 16.9113H168.518V15.6645H169.088C169.243 15.6645 169.355 15.6407 169.427 15.5932C169.51 15.5339 169.551 15.4033 169.551 15.2014V14.4177H170.905V15.1658C170.905 15.7595 170.751 16.1988 170.442 16.4838C170.133 16.7688 169.7 16.9113 169.142 16.9113Z" fill="#1B4B3F"/>
</svg>
